<svg width="344" height="344" viewBox="0 0 344 344" fill="none" xmlns="http://www.w3.org/2000/svg">
<path d="M190.52 343.36L177.39 336.71C177.03 336.53 176.61 336.53 176.25 336.71L163.1 343.33C162.2 343.78 161.16 343.05 161.33 342.09L163.86 328.03C163.93 327.65 163.8 327.26 163.51 326.99L152.89 317.02C152.17 316.34 152.57 315.16 153.57 315.02L168.27 312.99C168.67 312.94 169.01 312.7 169.19 312.35L175.78 299.57C176.23 298.7 177.52 298.7 177.97 299.57L184.52 312.37C184.7 312.72 185.04 312.96 185.44 313.01L200.13 315.08C201.13 315.22 201.53 316.4 200.8 317.08L190.15 327.02C189.86 327.29 189.73 327.68 189.8 328.06L192.29 342.12C192.46 343.09 191.41 343.82 190.52 343.36Z" fill="#DBB30E"/>
<path d="M249.19 320.9L239.14 315.82C238.87 315.68 238.54 315.68 238.27 315.82L228.22 320.9C227.54 321.25 226.73 320.69 226.87 319.95L228.79 309.2C228.84 308.91 228.74 308.61 228.52 308.41L220.39 300.8C219.84 300.28 220.14 299.38 220.91 299.27L232.14 297.7C232.44 297.66 232.71 297.47 232.84 297.21L237.86 287.43C238.2 286.76 239.19 286.76 239.53 287.43L244.55 297.21C244.69 297.47 244.95 297.66 245.25 297.7L256.48 299.27C257.25 299.38 257.55 300.28 257 300.8L248.87 308.41C248.65 308.62 248.55 308.91 248.6 309.2L250.52 319.95C250.67 320.69 249.87 321.25 249.19 320.9Z" fill="#DBB30E"/>
<path d="M104.75 320.9L114.8 315.82C115.07 315.68 115.4 315.68 115.67 315.82L125.72 320.9C126.4 321.25 127.21 320.69 127.07 319.95L125.15 309.2C125.1 308.91 125.2 308.61 125.42 308.41L133.55 300.8C134.1 300.28 133.8 299.38 133.03 299.27L121.8 297.7C121.5 297.66 121.23 297.47 121.1 297.21L116.08 287.43C115.74 286.76 114.75 286.76 114.41 287.43L109.39 297.21C109.25 297.47 108.99 297.66 108.69 297.7L97.46 299.27C96.69 299.38 96.39 300.28 96.94 300.8L105.07 308.41C105.29 308.62 105.39 308.91 105.34 309.2L103.42 319.95C103.27 320.69 104.07 321.25 104.75 320.9Z" fill="#DBB30E"/>
<path d="M223.54 60.9299H131.15V74.3799H223.54V60.9299Z" fill="#DBB30E"/>
<path d="M246.09 13.45C246.09 16.53 243.53 19.03 240.34 19.1L223.7 57.77L177.28 57.86L130.86 57.77L114.22 19.07C111.24 18.8 108.9 16.39 108.9 13.45C108.9 10.33 111.53 7.79999 114.78 7.79999C118.03 7.79999 120.66 10.33 120.66 13.45C120.66 14.64 120.28 15.75 119.62 16.66C126.82 25.84 152.58 54.71 161.26 10.46C159.58 9.46999 158.46 7.67999 158.46 5.64999C158.46 2.52999 161.09 0 164.34 0C167.59 0 170.22 2.52999 170.22 5.64999C170.22 7.77999 169 9.62 167.2 10.59C168.12 15.12 171.24 28.49 176.61 30.8C177.09 31 177.64 31 178.12 30.8C183.57 28.45 186.61 14.68 187.44 10.38C185.84 9.37 184.78 7.63 184.78 5.66C184.78 2.54 187.41 0.0100098 190.66 0.0100098C193.91 0.0100098 196.54 2.54 196.54 5.66C196.54 7.84 195.25 9.73999 193.36 10.68C202.17 55.1 228.32 25.21 235.18 16.38C234.64 15.53 234.33 14.53 234.33 13.46C234.33 10.34 236.96 7.81 240.21 7.81C243.46 7.8 246.09 10.33 246.09 13.45Z" fill="#DBB30E"/>
<path d="M191.49 110.91V208.59C191.49 210.54 191.95 212.02 192.87 213.03C193.79 214.04 195.42 214.86 197.78 215.48V218.5H155.93V215.48C158.29 214.85 159.92 214.03 160.84 213.03C161.76 212.02 162.21 210.55 162.21 208.59V110.91H120.56C118.6 110.91 117.09 111.34 116.04 112.2C114.99 113.06 114.14 114.65 113.49 116.95H110.35V83.63H113.49C114.21 85.92 115.08 87.5 116.09 88.37C117.1 89.24 118.59 89.67 120.56 89.67H233.04C235.07 89.67 236.61 89.24 237.66 88.37C238.71 87.5 239.56 85.92 240.21 83.63H243.35V116.95H240.21C239.55 114.65 238.7 113.07 237.66 112.2C236.61 111.34 235.07 110.91 233.04 110.91H191.49Z" fill="black"/>
<path d="M28.28 250.2H17.89V277.82H10.59V250.2H0V243.62H28.29V250.2H28.28Z" fill="#282828"/>
<path d="M59.57 277.81H52.27L49.26 270.71H34.62L31.74 277.81H24.44L38.04 244.25L38.3 243.62H45.08L45.35 244.25L59.57 277.81ZM46.42 264.01L41.78 252.19L37.34 264.01H46.42Z" fill="#282828"/>
<path d="M91.52 271.24V277.82H63.23V243.63H70.53V271.25H91.52V271.24Z" fill="#282828"/>
<path d="M102.71 250.2V256.49H114.21V263.07H102.71V271.24H123.7V277.82H95.41V243.63H123.7V250.21H102.71V250.2Z" fill="#282828"/>
<path d="M157.19 243.62V277.81H150.26L149.89 277.22L135.91 255.15V277.82H128.61V243.63H135.91L149.89 265.7V243.63H157.19V243.62Z" fill="#282828"/>
<path d="M189.33 250.2H178.94V277.82H171.64V250.2H161.05V243.62H189.34V250.2H189.33Z" fill="#282828"/>
<path d="M235.6 250.2H225.21V277.82H217.91V250.2H207.32V243.62H235.61V250.2H235.6Z" fill="#282828"/>
<path d="M246.74 250.2V256.49H258.24V263.07H246.74V271.24H267.73V277.82H239.44V243.63H267.73V250.21H246.74V250.2Z" fill="#282828"/>
<path d="M304.81 277.81H297.51L294.5 270.71H279.86L276.98 277.81H269.68L283.28 244.25L283.54 243.62H290.32L290.59 244.25L304.81 277.81ZM291.66 264.01L287.02 252.19L282.58 264.01H291.66Z" fill="#282828"/>
<path d="M343.49 243.62V277.81H336.19V259.18L329.33 273.8L327.45 277.8H323.82L322.02 273.8L315.76 259.87V277.8H308.46V243.61H315.76L325.74 265.85L336.17 243.61H343.49V243.62Z" fill="#282828"/>
</svg>
